<?xml version="1.0" encoding="UTF-8"?>
<svg width="24px" height="24px" viewBox="0 0 24 24" version="1.1" xmlns="http://www.w3.org/2000/svg" xmlns:xlink="http://www.w3.org/1999/xlink">
    <!-- Generator: Sketch 63.1 (92452) - https://sketch.com -->
    <title>mother_disable</title>
    <desc>Created with Sketch.</desc>
    <defs>
        <rect id="path-1" x="0" y="0" width="24" height="24"></rect>
    </defs>
    <g id="mother_disable" stroke="none" stroke-width="1" fill="none" fill-rule="evenodd">
        <g id="编组">
            <g id="矩形"></g>
            <path d="M15.1193684,2.33893452 L15.235,2.417 L15.2529562,2.42178351 C15.5963555,2.51797208 16.0233361,2.71847533 16.4578804,3.06627305 L16.6443552,3.22447256 C17.5034939,3.99596068 18.0348596,5.13323778 18.0944005,6.66393727 L18.1,6.95556059 L18.1,11.2016053 C18.1,12.4607359 17.1533601,13.5092252 15.949241,13.5944133 L15.7907784,13.6 L15.4074263,13.600103 C15.1423355,13.930392 14.8322558,14.22282 14.4847636,14.4667221 L14.4839256,15.0207587 L14.7286852,15.1650215 C14.9951666,15.3312871 15.2440858,15.5127115 15.4752878,15.7092901 L17.3912497,16.2495512 C17.6436476,16.3236664 17.8389139,16.3853497 18.0180625,16.4477385 C19.1176551,16.8306735 19.5702962,17.2762677 19.769318,18.2406805 L20.6314265,22.420528 C20.6753177,22.6370379 20.5353826,22.8481346 20.3188727,22.8920258 C20.1023629,22.9359169 19.8912661,22.7959819 19.847375,22.579472 L18.9856537,18.4015206 C18.8578894,17.7824078 18.6384608,17.5335061 17.9173184,17.2619228 L17.7549592,17.2032361 C17.5550887,17.1336308 17.3277401,17.0632067 17.0063623,16.9708467 L15.9574534,16.6755576 C16.0504145,17.5433773 15.6404601,18.6717822 14.7224357,19.0391659 L12.1318949,19.521494 C12.0679166,19.5438726 11.996135,19.5501801 11.9206774,19.5349132 L11.9869256,19.5417587 L11.9774778,19.5432437 C11.9326469,19.5431512 11.8899442,19.5355684 11.8502968,19.521822 L9.50338774,19.0391659 C8.5804106,18.6698002 8.1710003,17.5311796 8.26991855,16.6615349 L6.43946178,17.1884113 C5.61327235,17.4948061 5.34362343,17.7015446 5.20075475,18.2734138 L4.89490679,19.7277978 L4.31772445,22.5759441 C4.27578167,22.7928398 4.06595161,22.9346672 3.84905589,22.8927244 C3.63216016,22.8507817 3.49033278,22.6409516 3.53227555,22.4240559 L3.8816905,20.6804044 L4.38819735,18.2411854 C4.58972773,17.2467586 5.04325588,16.8529573 6.18977559,16.4289656 L8.78534883,15.6799169 C9.09453774,15.4210403 9.43491845,15.1888551 9.80612844,14.9833726 L9.67192562,15.0617587 L9.67433922,14.8613328 C9.67535402,14.7626908 9.67698209,14.6693951 9.67938736,14.5774974 C9.26441013,14.3112793 8.89104643,13.9713124 8.57716559,13.569176 L8.57639479,13.6 L8.20922159,13.6 C6.98401572,13.6 5.98632558,12.6039745 5.90531183,11.3645833 L5.9,11.2016053 L5.9,7.73568261 C5.9,5.97836419 6.5876529,4.33320256 7.7816698,3.14410206 C9.78478138,1.15095878 12.8056565,0.842710365 15.1193684,2.33893452 Z M14.3219256,15.9567587 L12.7708235,18.591 L14.5017165,18.2743516 C15.1384729,18.0113314 15.3286505,16.7653438 15.0699476,16.424376 L14.9583112,16.3765676 L14.3219256,15.9567587 Z M9.86492562,15.9367587 L9.21092562,16.3677587 L9.19058949,16.3865719 C8.90136707,16.6426256 9.04035688,17.836948 9.61136444,18.2121462 L9.73132731,18.2757435 L11.254,18.583 L9.86492562,15.9367587 Z M13.555133,14.9643179 C12.5058393,15.371857 11.4248077,15.3469495 10.4742984,14.9824842 L10.4729607,15.0971382 L10.4727938,15.3211351 L10.4679256,15.3637587 L12.0109256,18.3037587 L13.7011331,15.434028 C13.6978773,15.4229639 13.6950935,15.4117355 13.6927971,15.4003719 L13.6848773,15.3211351 L13.6854026,14.9113068 C13.6423523,14.9296417 13.5989259,14.9473165 13.555133,14.9643179 Z M14.9092486,5.76831458 C14.0296732,6.34478313 12.9223403,6.62145497 11.6188038,6.38386239 L11.3554898,6.32942347 L11.1627747,6.29150427 C10.2746557,6.14771236 9.54285467,6.46484699 8.93630844,7.10116172 C8.75459662,7.29179172 8.59916963,7.49716495 8.47089302,7.70212569 L8.45255249,7.73170491 L8.45255249,7.73170491 L8.43534384,7.75998974 L8.362,7.887 L8.36294133,10.3658928 L8.3655278,10.8056837 L8.38511263,11.0223612 C8.68634831,13.5962638 11.062505,15.0742178 13.2655526,14.2185678 C14.6178291,13.6935849 15.550387,12.3765312 15.6289227,10.8638424 L15.6342978,10.6564101 L15.635074,7.76716576 L15.6373431,7.54403338 C15.6292021,7.13456706 15.5551893,6.64768617 15.3732064,6.1824935 C15.3292224,6.07005982 15.2797929,5.96248256 15.2247492,5.86033704 C15.1579486,5.73638595 15.0159895,5.69834741 14.9092486,5.76831458 Z" id="形状结合" fill-opacity="0.3" fill="#000000" mask="url(#mask-2)"></path>
        </g>
    </g>
</svg>