<?xml version="1.0" encoding="UTF-8"?>
<svg width="24px" height="24px" viewBox="0 0 24 24" version="1.1" xmlns="http://www.w3.org/2000/svg" xmlns:xlink="http://www.w3.org/1999/xlink">
    <title>伞</title>
    <g id="伞" stroke="none" stroke-width="1" fill="none" fill-rule="evenodd" fill-opacity="0.9">
        <g id="编组-6" transform="translate(2.000000, 2.000000)" fill="#000000" fill-rule="nonzero">
            <path d="M10.6666667,10.9534135 L10.6666667,17.862661 C10.6666667,19.3454881 9.46459786,20.5475569 7.98177083,20.5475569 C6.55825689,20.5475569 5.39348972,19.4397303 5.30258597,18.0391937 L5.296875,17.862661 L5.296875,17.1624739 L6.63020833,17.1624739 L6.63020833,17.862661 C6.63020833,18.6091084 7.23532348,19.2142235 7.98177083,19.2142235 C8.68156523,19.2142235 9.25714186,18.6823841 9.32635537,18.0008505 L9.33333333,17.862661 L9.33333333,10.9534135 L10.6666667,10.9534135 Z" id="路径"></path>
            <path d="M10,8.61533067e-13 C15.4242252,8.61533067e-13 19.8397682,4.31868186 19.9957365,9.70515306 L20,10 L19.9699248,10.9534135 L0.00180451128,10.9534135 L0,10 C0,4.4771525 4.4771525,8.61533067e-13 10,8.61533067e-13 Z M10,1.33333333 C5.39762709,1.33333333 1.6331508,4.92079527 1.35038182,9.44966291 L1.34111111,9.62 L18.6566667,9.62 L18.6496161,9.45190636 C18.3725045,5.0114175 14.7515593,1.47720927 10.2751157,1.33761714 L10,1.33333333 Z" id="路径"></path>
        </g>
    </g>
</svg>