<?xml version="1.0" encoding="UTF-8"?>
<svg width="24px" height="24px" viewBox="0 0 24 24" version="1.1" xmlns="http://www.w3.org/2000/svg" xmlns:xlink="http://www.w3.org/1999/xlink">
    <!-- Generator: Sketch 63.1 (92452) - https://sketch.com -->
    <title>father_disable - dm</title>
    <desc>Created with Sketch.</desc>
    <g id="father_disable---dm" stroke="none" stroke-width="1" fill="none" fill-rule="evenodd" fill-opacity="0.3">
        <g id="编组" fill="#FFFFFF">
            <path d="M12.388196,1 C13.6846477,1 14.9244393,1.58007277 15.7296399,2.55693114 C17.2042116,3.08751549 18.1273252,4.49343449 17.9857205,6.01703669 L17.818878,7.77894737 L17.7247173,7.76906791 C18.4155449,8.06698647 18.9,8.72758523 18.9,9.5 C18.9,10.5062234 18.0779187,11.3226732 17.0484164,11.3948169 L16.9,11.4 L16.684564,11.400663 C16.3150471,12.2128557 15.6558402,12.9212754 14.8959741,13.4550354 L14.9,13.5 L14.8999984,14.8311413 C14.900156,14.8866055 14.9497774,14.9480807 15.0306698,14.9778178 L15.0969181,14.9935799 L16.015337,15.1001844 C16.0570608,15.101788 16.0992422,15.1100038 16.1404809,15.1254683 L16.083,15.11 L17.4233986,15.2682599 C19.3294839,15.4950427 20.7957633,16.9278849 20.8946196,18.6569566 L20.8999366,18.8433064 L20.8999366,22.5 C20.8999366,22.7209139 20.7208505,22.9 20.4999366,22.9 C20.3066369,22.9 20.1453617,22.7628872 20.1080632,22.580614 L20.0999366,22.5 L20.0999366,18.8433064 C20.0999366,17.510946 19.0095184,16.3481822 17.5177511,16.0901836 L17.3292397,16.0626993 L16.263,15.936 L14.8745632,19.6404494 L14.8380156,19.7140925 C14.7372213,19.8736078 14.5337141,19.9442862 14.3514752,19.8713907 L14.3514752,19.8713907 L12,18.93 L9.64855627,19.8713907 C9.46631737,19.9442862 9.26281021,19.8736078 9.16201589,19.7140925 L9.12546833,19.6404494 L7.736,15.936 L6.6706969,16.0626993 L6.48218547,16.0901836 C4.9904182,16.3481822 3.9,17.510946 3.9,18.8433064 L3.9,18.8433064 L3.9,22.5 L3.89187342,22.580614 C3.85457492,22.7628872 3.69329966,22.9 3.5,22.9 C3.2790861,22.9 3.1,22.7209139 3.1,22.5 L3.1,22.5 L3.1,18.8433064 L3.105317,18.6569566 C3.20417327,16.9278849 4.67045269,15.4950427 6.57653798,15.2682599 L6.57653798,15.2682599 L7.916,15.11 L7.93788525,15.104772 C7.95350354,15.1023008 7.96913083,15.1007826 7.98469445,15.1001844 L8.90301844,14.9935799 L8.96926679,14.9778178 C9.05015917,14.9480807 9.09978053,14.8866055 9.09993819,14.8311413 L9.09993819,14.8311413 L9.09993658,13.5 L9.1037832,13.4552526 C8.34360573,12.9214676 7.68416111,12.2129659 7.31479564,11.400663 L7.1,11.4 C6.00223894,11.4 5.1,10.5541388 5.1,9.5 C5.1,8.7272153 5.58491927,8.06635373 6.2762754,7.76864012 L6.18105273,7.77894737 L6.01421017,6.01778319 C5.87296924,4.49343449 6.79612833,3.08751549 8.27029076,2.55693114 C9.07585518,1.58007277 10.3156468,1 11.6120985,1 L12.388196,1 Z M9.18675455,15.748016 C9.12599542,15.7666151 9.06281728,15.7801013 8.99782676,15.7879415 L8.99782676,15.7879415 L8.554,15.839 L9.73,18.976 L11.339,18.333 L9.19271149,15.7560738 Z M14.813182,15.748016 L14.80732,15.7560738 L12.6610315,18.333 L14.2700315,18.976 L15.445,15.839 L15.0021098,15.7879415 C14.9371193,15.7801013 14.8739412,15.7666151 14.813182,15.748016 Z M9.8994448,13.9326926 L9.89993658,14.8322783 L9.89274528,14.9442718 C9.87956562,15.0484908 9.84863714,15.1474618 9.80292367,15.2385811 L9.80728851,15.2439262 L12,17.874 L14.192743,15.2439262 C14.1512994,15.1474618 14.120371,15.0484908 14.1071913,14.9442718 L14.1,14.8322783 L14.1005703,13.932506 C13.385481,14.2943491 12.6413274,14.5 11.9999993,14.5 C11.3587814,14.5 10.6146006,14.2944198 9.8994448,13.9326926 Z M9.752,4.8 L9.08334001,4.8 C8.39941803,4.8 7.87421869,5.20873089 7.80723176,5.67481952 L7.79999937,5.77544553 L7.79999937,10.0005383 C7.79879013,11.7983705 10.1397494,13.7 12,13.7 C13.8016343,13.7 16.0542037,11.915532 16.1932299,10.1688542 L16.2,10 L16.2,5.77548714 C16.2,5.30297766 15.7203746,4.86272819 15.0606726,4.8061283 L14.9166607,4.8 L14.247,4.8 L14.2251144,4.82848785 C13.7122283,5.48417876 12.8816627,5.86432954 11.9995346,5.86530012 C11.1852466,5.86440362 10.41475,5.54013177 9.90061002,4.97756396 L9.752,4.8 Z M7.1,8.4 C6.43296987,8.4 5.9,8.89965633 5.9,9.5 C5.9,10.0603367 6.36425069,10.5329338 6.96850221,10.5934563 L7.05695037,10.5988172 C7.01956296,10.4030507 6.99986266,10.2031766 6.99999931,10 L6.999,8.405 L7.1,8.4 Z M16.9,8.4 L16.999,8.405 L16.9999993,10 C16.9999993,10.2031766 16.9801846,10.4030507 16.9427022,10.5988172 L17.0314978,10.5934563 C17.6357493,10.5329338 18.1,10.0603367 18.1,9.5 C18.1,8.89965633 17.5670301,8.4 16.9,8.4 Z" id="形状结合"></path>
        </g>
    </g>
</svg>