<?xml version="1.0" encoding="utf-8"?>	<svg height="72px" version="1.1" viewBox="0 0 72 72" width="72px" xmlns="http://www.w3.org/2000/svg" xmlns:xlink="http://www.w3.org/1999/xlink">		
    		<title>占位头像</title>		
    		<defs>			
        			
    		</defs>		
    		<g fill="none" fill-rule="evenodd" id="占位头像" stroke="none" stroke-width="1">			
        			<g id="编组-3">				
            				<g fill="#F7F7F7" id="编组-2" transform="translate(36.000000, 36.000000) rotate(-360.000000) translate(-36.000000, -36.000000) ">					
                					<path d="M20.5110816,-8.28672246e-16 L51.4889184,8.28672246e-16 C58.6210683,-4.81482439e-16 61.2073582,0.742604889 63.8147656,2.13706163 C66.422173,3.53151837 68.4684816,5.57782696 69.8629384,8.18523437 C71.2573951,10.7926418 72,13.3789317 72,20.5110816 L72,51.4889184 C72,58.6210683 71.2573951,61.2073582 69.8629384,63.8147656 C68.4684816,66.422173 66.422173,68.4684816 63.8147656,69.8629384 C61.2073582,71.2573951 58.6210683,72 51.4889184,72 L20.5110816,72 C13.3789317,72 10.7926418,71.2573951 8.18523437,69.8629384 C5.57782696,68.4684816 3.53151837,66.422173 2.13706163,63.8147656 C0.742604889,61.2073582 3.20988293e-16,58.6210683 -5.52448164e-16,51.4889184 L5.52448164e-16,20.5110816 C-3.20988293e-16,13.3789317 0.742604889,10.7926418 2.13706163,8.18523437 C3.53151837,5.57782696 5.57782696,3.53151837 8.18523437,2.13706163 C10.7926418,0.742604889 13.3789317,4.81482439e-16 20.5110816,-8.28672246e-16 Z" id="矩形"/>					
            				</g>				
            				<g id="编组" opacity="0.15" transform="translate(8.000000, 17.000000)">					
                					<path d="M34.4078278,14.9101669 C32.8928609,14.9101669 31.664755,16.1469881 31.664755,17.6728954 C31.664755,19.1986172 32.8928609,20.4356238 34.4078278,20.4356238 C35.9226093,20.4356238 37.1507152,19.1986172 37.1507152,17.6728954 C37.1507152,16.1469881 35.9226093,14.9101669 34.4078278,14.9101669" fill="#000000" id="Fill-1"/>					
                					<path d="M21.5769113,14.9101669 C20.0619444,14.9101669 18.8338384,16.1469881 18.8338384,17.6728954 C18.8338384,19.1986172 20.0619444,20.4356238 21.5769113,20.4356238 C23.0916927,20.4356238 24.3197987,19.1986172 24.3197987,17.6728954 C24.3197987,16.1469881 23.0916927,14.9101669 21.5769113,14.9101669" fill="#000000" id="Fill-3"/>					
                					<path d="M29.6400583,19.5836821 L28.5432371,19.5836821 L28.5432371,18.6274172 C28.8695947,18.436053 29.0895152,18.0807682 29.0895152,17.6728212 C29.0895152,17.0623841 28.5983099,16.5676556 27.9923232,16.5676556 C27.3863364,16.5676556 26.8949457,17.0623841 26.8949457,17.6728212 C26.8949457,18.0807682 27.1150517,18.436053 27.4414093,18.6274172 L27.4414093,19.5836821 L26.3445881,19.5836821 C26.0402967,19.5836821 25.7934887,19.8304901 25.7934887,20.1347815 C25.7934887,20.4390728 26.0402967,20.6856954 26.3445881,20.6856954 L29.6400583,20.6856954 C29.9445351,20.6856954 30.1911576,20.4390728 30.1911576,20.1347815 C30.1911576,19.8304901 29.9445351,19.5836821 29.6400583,19.5836821" fill="#000000" id="Fill-5"/>					
                					<g transform="translate(0.000000, 0.113483)">						
                    						<mask fill="white" id="mask-2">							
                        							
                    							<g xlink:href="#path-1">								<polygon id="path-1" points="0 0.0719470199 55.9845531 0.0719470199 55.9845531 37.2714675 0 37.2714675"/>							</g>						</mask>						
                    						<g id="Clip-8"/>						
                    						<path d="M52.2864768,26.9711762 C51.5291788,28.0240503 50.2639868,28.5215603 48.5216821,28.449057 C44.4742914,28.2814278 44.1104768,25.3633086 44.1030596,17.0665934 L44.1023179,16.4068318 C44.1010199,15.6395205 43.4787152,15.0185139 42.7115894,15.0185139 L42.7095497,15.0185139 C41.9413113,15.0196265 41.3195629,15.6432291 41.3208609,16.4112821 L41.3216026,17.0691894 C41.3251258,20.8176662 41.3279073,24.0552821 42.1132053,26.5148318 C42.6913775,28.3259311 43.6975232,29.6180106 45.112543,30.388845 C40.5680132,33.1122623 34.8248609,34.4900106 27.9923046,34.4900106 C21.1597483,34.4900106 15.4164106,33.1122623 10.8718808,30.388845 C12.2869007,29.6180106 13.2930464,28.3261166 13.871404,26.5152026 C14.6565166,24.0558384 14.6596689,20.8185934 14.6631921,17.0701166 L14.6637483,16.4114675 C14.6650464,15.6434146 14.0434834,15.0196265 13.275245,15.0185139 L13.2730199,15.0185139 C12.5060795,15.0185139 11.8835894,15.639706 11.8822914,16.4068318 L11.8817351,17.067706 C11.8741325,25.3636795 11.5103179,28.2814278 7.46274172,28.449057 C5.72266225,28.5208185 4.45543046,28.0240503 3.69831788,26.9711762 C2.33633113,25.0773748 2.48337748,21.4360768 4.09161589,17.2306993 C6.05272848,12.1029907 10.8904238,7.43644768 16.7170199,5.05218278 C20.2822914,3.59321589 24.0760132,2.85334834 27.9923046,2.85334834 C31.908596,2.85334834 35.7021325,3.59321589 39.2677748,5.05218278 C45.0941854,7.43663311 49.9318808,12.1029907 51.8929934,17.2306993 C53.5012318,21.4360768 53.6482781,25.0773748 52.2864768,26.9711762 M54.4908742,16.2371629 C52.2308477,10.3276795 46.9338411,5.18402384 40.3213907,2.47803709 C36.4197483,0.881480795 32.2714834,0.0718913907 27.9923046,0.0718913907 C23.7129404,0.0718913907 19.5648609,0.881480795 15.663404,2.47803709 C9.05095364,5.18383841 3.75376159,10.327494 1.4937351,16.2371629 C-0.479059603,21.3952821 -0.498529801,25.8995735 1.43996026,28.5949907 C2.3209404,29.8197589 4.02449007,31.2377457 7.15603974,31.2332954 C12.4667682,35.2398914 19.4730728,37.2714675 27.9923046,37.2714675 C36.5091258,37.2714675 43.5137616,35.241004 48.8239338,31.237004 C48.8322781,31.237004 48.8409934,31.2375603 48.8493377,31.2375603 C51.9716159,31.2375603 53.6655232,29.8177192 54.544649,28.5949907 C56.4831391,25.8995735 56.4634834,21.3952821 54.4908742,16.2371629" fill="#000000" id="Fill-7" mask="url(#mask-2)"/>						
                					</g>					
            				</g>				
        			</g>			
    		</g>		
	</svg>