<?xml version="1.0" encoding="UTF-8"?>
<svg width="120px" height="120px" viewBox="0 0 120 120" version="1.1" xmlns="http://www.w3.org/2000/svg" xmlns:xlink="http://www.w3.org/1999/xlink">
    <title>icons_outlined_kidwatch02</title>
    <g id="icons_outlined_kidwatch02" stroke="none" stroke-width="1" fill="none" fill-rule="evenodd">
        <rect id="矩形" x="0" y="0" width="120" height="120"></rect>
        <g id="编组" transform="translate(26.538462, 6.923077)" stroke="#000000" stroke-width="0.6">
            <path d="M15.3833112,17 L52.6166888,17 C57.9658012,17 59.9055187,17.5569537 61.8610742,18.6027962 C63.8166298,19.6486388 65.3513612,21.1833702 66.3972038,23.1389258 C67.4430463,25.0944813 68,27.0341988 68,32.3833112 L68,73.6166888 C68,78.9658012 67.4430463,80.9055187 66.3972038,82.8610742 C65.3513612,84.8166298 63.8166298,86.3513612 61.8610742,87.3972038 C59.9055187,88.4430463 57.9658012,89 52.6166888,89 L15.3833112,89 C10.0341988,89 8.09448133,88.4430463 6.13892578,87.3972038 C4.18337022,86.3513612 2.64863878,84.8166298 1.60279622,82.8610742 C0.556953667,80.9055187 1.29453472e-15,78.9658012 -2.2280044e-15,73.6166888 L4.14336123e-16,32.3833112 C-2.4074122e-16,27.0341988 0.556953667,25.0944813 1.60279622,23.1389258 C2.64863878,21.1833702 4.18337022,19.6486388 6.13892578,18.6027962 C8.09448133,17.5569537 10.0341988,17 15.3833112,17 Z" id="矩形"></path>
            <path d="M69.0769231,34.6153846 C69.6292078,34.6153846 70.0769231,35.0630999 70.0769231,35.6153846 L70.0769231,45.6153846 C70.0769231,46.1676694 69.6292078,46.6153846 69.0769231,46.6153846 C68.5246383,46.6153846 68.0769231,46.1676694 68.0769231,45.6153846 L68.0769231,35.6153846 C68.0769231,35.0630999 68.5246383,34.6153846 69.0769231,34.6153846 Z" id="矩形"></path>
            <path d="M15,17.3076923 C15,17.0387949 15.4128097,14.4627196 15.4595401,14.1979138 L17.080317,5.01351154 C17.4027215,3.18655244 17.6809366,2.55078308 18.1190435,1.91851435 C18.5571503,1.28624561 19.1288303,0.806617028 19.8276147,0.485055624 C20.5263991,0.16349422 21.200844,0 23.0560324,0 L46.3356147,0 C48.1908031,0 48.8652481,0.16349422 49.5640325,0.485055624 C50.2628169,0.806617028 50.8344968,1.28624561 51.2726037,1.91851435 C51.7107105,2.55078308 51.9889256,3.18655244 52.3113301,5.01351154 L54.2158391,17.3076923" id="路径"></path>
            <path d="M15,106.153846 C15,105.884949 15.4128097,103.308873 15.4595401,103.044068 L17.080317,93.8596654 C17.4027215,92.0327063 17.6809366,91.3969369 18.1190435,90.7646682 C18.5571503,90.1323995 19.1288303,89.6527709 19.8276147,89.3312095 C20.5263991,89.0096481 21.200844,88.8461538 23.0560324,88.8461538 L46.3356147,88.8461538 C48.1908031,88.8461538 48.8652481,89.0096481 49.5640325,89.3312095 C50.2628169,89.6527709 50.8344968,90.1323995 51.2726037,90.7646682 C51.7107105,91.3969369 51.9889256,92.0327063 52.3113301,93.8596654 L54.2158391,106.153846" id="路径" transform="translate(34.607920, 97.500000) scale(1, -1) translate(-34.607920, -97.500000) "></path>
            <path d="M14.9166582,26 L53.0833418,26 C55.1406928,26 55.8867379,26.2142129 56.6388747,26.6164601 C57.3910115,27.0187072 57.9812928,27.6089885 58.3835399,28.3611253 C58.7857871,29.1132621 59,29.8593072 59,31.9166582 L59,74.0833418 C59,76.1406928 58.7857871,76.8867379 58.3835399,77.6388747 C57.9812928,78.3910115 57.3910115,78.9812928 56.6388747,79.3835399 C55.8867379,79.7857871 55.1406928,80 53.0833418,80 L14.9166582,80 C12.8593072,80 12.1132621,79.7857871 11.3611253,79.3835399 C10.6089885,78.9812928 10.0187072,78.3910115 9.61646009,77.6388747 C9.21421295,76.8867379 9,76.1406928 9,74.0833418 L9,31.9166582 C9,29.8593072 9.21421295,29.1132621 9.61646009,28.3611253 C10.0187072,27.6089885 10.6089885,27.0187072 11.3611253,26.6164601 C12.1132621,26.2142129 12.8593072,26 14.9166582,26 Z" id="矩形"></path>
        </g>
    </g>
</svg>