<?xml version="1.0" encoding="UTF-8"?>
<svg width="24px" height="24px" viewBox="0 0 24 24" version="1.1" xmlns="http://www.w3.org/2000/svg" xmlns:xlink="http://www.w3.org/1999/xlink">
    <title>icon_transaction_protection</title>
    <g id="icon_transaction_protection" stroke="none" stroke-width="1" fill="none" fill-rule="evenodd">
        <g>
            <rect id="矩形" fill-opacity="0" fill="#FFFFFF" x="0" y="0" width="24" height="24"></rect>
            <path d="M13.5588457,2.42148497 L19.4411543,5.84848164 C20.4057714,6.4104616 21,7.44904341 21,8.57300334 L21,15.4269967 C21,16.5509566 20.4057714,17.5895384 19.4411543,18.1515184 L13.5588457,21.578515 C12.5942286,22.140495 11.4057714,22.140495 10.4411543,21.578515 L4.55884573,18.1515184 C3.59422863,17.5895384 3,16.5509566 3,15.4269967 L3,8.57300334 C3,7.44904341 3.59422863,6.4104616 4.55884573,5.84848164 L10.4411543,2.42148497 C11.4057714,1.85950501 12.5942286,1.85950501 13.5588457,2.42148497 Z M8.94945,7.255 C8.53545,8.81272727 7.5108,10.7677273 6.79665,11.7609091 L6.79665,11.7609091 L7.428,12.7018182 C7.6971,12.3568182 7.95585,12.0118182 8.18355,11.6563636 L8.18355,11.6563636 L8.18355,16.5909091 L9.1875,16.5909091 L9.1875,9.77454545 C9.498,9.07409091 9.7671,8.32136364 10.02585,7.51636364 L10.02585,7.51636364 Z M13.5759,11.2904545 L12.57195,11.2904545 L12.57195,12.0431818 L9.79815,12.0431818 L9.79815,12.9945455 L12.11655,12.9945455 C11.45415,13.9145455 10.6572,14.5731818 9.23925,15.2736364 L9.23925,15.2736364 L9.83955,16.2145455 C11.1126,15.3990909 11.90955,14.6986364 12.57195,13.7577273 L12.57195,13.7577273 L12.57195,16.5595455 L13.5759,16.5595455 L13.5759,13.7786364 C14.26935,14.6777273 15.15945,15.4931818 16.1427,16.1309091 L16.1427,16.1309091 L16.71195,15.1481818 C15.46995,14.5418182 14.55915,13.8518182 13.8864,12.9945455 L13.8864,12.9945455 L16.3704,12.9945455 L16.3704,12.0431818 L13.5759,12.0431818 L13.5759,11.2904545 Z M15.7908,7.64181818 L10.35705,7.64181818 L10.35705,11.1336364 L15.7908,11.1336364 L15.7908,7.64181818 Z M14.72475,8.64545455 L14.72475,10.13 L11.4231,10.13 L11.4231,8.64545455 L14.72475,8.64545455 Z" id="形状结合" fill="#07C160" fill-rule="nonzero"></path>
        </g>
    </g>
</svg>