<?xml version="1.0" encoding="UTF-8"?>
<svg width="136px" height="103px" viewBox="0 0 136 103" version="1.1" xmlns="http://www.w3.org/2000/svg" xmlns:xlink="http://www.w3.org/1999/xlink">
    <title>画板</title>
    <g id="画板" stroke="none" stroke-width="1" fill="none" fill-rule="evenodd">
        <path d="M125,9 C127.209139,9 129,10.790861 129,13 L129,89 C129,91.209139 127.209139,93 125,93 L11,93 C8.790861,93 7,91.209139 7,89 L7,13 C7,10.790861 8.790861,9 11,9 L125,9 Z M125,10 L11,10 C9.40231912,10 8.09633912,11.24892 8.00509269,12.8237272 L8,13 L8,89 C8,90.5976809 9.24891996,91.9036609 10.8237272,91.9949073 L11,92 L125,92 C126.597681,92 127.903661,90.75108 127.994907,89.1762728 L128,89 L128,13 C128,11.4023191 126.75108,10.0963391 125.176273,10.0050927 L125,10 Z" id="矩形" fill="#000000" fill-rule="nonzero"></path>
        <circle id="椭圆形" fill="#000000" cx="68" cy="13" r="1"></circle>
    </g>
</svg>