<?xml version="1.0" encoding="UTF-8"?>
<svg width="24px" height="24px" viewBox="0 0 24 24" version="1.1" xmlns="http://www.w3.org/2000/svg" xmlns:xlink="http://www.w3.org/1999/xlink">
    <title>icons_filled_pic-in-pic</title>
    <g id="icons_filled_pic-in-pic" stroke="none" stroke-width="1" fill="none" fill-rule="evenodd">
        <path d="M19.5,3 C20.0522847,3 20.5,3.44771525 20.5,4 L20.5,4 L20.5,11.999 L18.5,11.999 L18.5,5 L4,5 L4,17 L12,16.999 L12,19 L3,19 C2.48716416,19 2.06449284,18.6139598 2.00672773,18.1166211 L2,18 L2,4 C2,3.44771525 2.44771525,3 3,3 L3,3 Z" id="形状结合" fill="#000000" fill-rule="nonzero"></path>
        <path d="M21,13.38 L14.38,13.38 C13.8277153,13.38 13.38,13.8277153 13.38,14.38 L13.38,19.9981749 C13.3802118,20.5503769 13.827798,20.9980579 14.38,20.9983866 L21,20.9997883 C21.5522847,21.0001169 22.0000948,20.5524965 22.0002117,20.0002117 C22.0002117,20.0001412 22.0002117,20.0000706 22,20 L22,14.38 C22,13.8277153 21.5522847,13.38 21,13.38 Z M15.19,15 L20.19,15 C20.2949341,15 20.38,15.0850659 20.38,15.19 L20.38,19.19 C20.38,19.2949341 20.2949341,19.38 20.19,19.38 L15.19,19.38 C15.0850659,19.38 15,19.2949341 15,19.19 L15,15.19 C15,15.0850659 15.0850659,15 15.19,15 Z" id="矩形备份-2" fill="#000000" fill-rule="nonzero"></path>
        <g id="编组-2" transform="translate(4.500000, 5.500000)" fill="#000000">
            <path d="M6.5,7.00362175 L1,7.00362175 L1,7.00362175 L1,5.50362175 L5.502,5.503 L5.50233269,1 L7,1 L7,6.50362175 C7,6.77976413 6.77614237,7.00362175 6.5,7.00362175 Z" id="路径"></path>
            <rect id="矩形备份-4" transform="translate(3.792893, 3.792893) rotate(-315.000000) translate(-3.792893, -3.792893) " x="0.292893219" y="3.04289322" width="7" height="1.5"></rect>
        </g>
    </g>
</svg>