<?xml version="1.0" encoding="UTF-8"?>
<svg width="24px" height="24px" viewBox="0 0 24 24" version="1.1" xmlns="http://www.w3.org/2000/svg" xmlns:xlink="http://www.w3.org/1999/xlink">
    <title>声音 icon</title>
    <g id="声音-icon" stroke="none" stroke-width="1" fill="none" fill-rule="evenodd">
        <path d="M11.0003032,3.05489527 L11.0004725,4.2634444 C7.16470053,4.75410065 4.2,8.03082887 4.2,12 C4.2,16.307821 7.69217895,19.8 12,19.8 C16.307821,19.8 19.8,16.307821 19.8,12 C19.8,9.97815051 19.0307299,8.13597366 17.7689138,6.75019341 L19.0577401,6.41477032 C20.2738213,7.94938805 21,9.88988997 21,12 C21,16.9705627 16.9705627,21 12,21 C7.02943725,21 3,16.9705627 3,12 C3,7.3673423 6.50020676,3.5522017 11.0003032,3.05489527 Z M19.2966514,1.56123229 L19.2991593,1.57395413 L19.3,3.87996438 C19.3,3.92530986 19.2694883,3.96497961 19.2256612,3.97661582 L14.499,5.23086885 L14.5,12 C14.5,13.3254834 13.4684641,14.4100387 12.1643757,14.4946823 L12,14.5 C10.6192881,14.5 9.5,13.3807119 9.5,12 C9.5,10.6192881 10.6192881,9.5 12,9.5 C12.4761364,9.5 12.9211842,9.63310628 13.2999627,9.86413821 L13.3,3.81903905 C13.3,3.36558422 13.605117,2.96888679 14.0433876,2.85252466 L19.1743388,1.49024209 C19.2277179,1.47606978 19.2824791,1.50785317 19.2966514,1.56123229 Z" id="形状" fill="#000000"></path>
    </g>
</svg>