<?xml version="1.0" encoding="UTF-8"?>
<svg width="20px" height="24px" viewBox="0 0 20 24" version="1.1" xmlns="http://www.w3.org/2000/svg" xmlns:xlink="http://www.w3.org/1999/xlink">
    <title>0.图标/面型/icons_filled_shop</title>
    <g id="带货标注" stroke="none" stroke-width="1" fill="none" fill-rule="evenodd" fill-opacity="0.8">
        <g id="直播发起页" transform="translate(-328.000000, -61.000000)" fill="#FFFFFF">
            <g id="编组" transform="translate(324.000000, 59.000000)">
                <g id="icon37" transform="translate(0.000000, -0.000000)">
                    <path d="M14,2.33333333 C16.8994949,2.33333333 19.25,4.6838384 19.25,7.58333333 L19.2496667,8.16633333 L17.4996667,8.16633333 L17.5,12.8333333 L19.25,12.8333333 L19.2496667,8.16633333 L22.1656497,8.16666667 C22.8105436,8.16666667 23.3333333,8.69040691 23.3333333,9.34206464 L23.3333333,23.3428018 C23.3333333,24.6262369 22.289734,25.6666667 21.0069297,25.6666667 L6.99307032,25.6666667 C5.70823306,25.6666667 4.66666667,24.6243698 4.66666667,23.3428018 L4.66666667,9.34206464 C4.66666667,8.69291026 5.18540267,8.16666667 5.83435027,8.16666667 L8.74966667,8.16633333 L8.75,7.58333333 C8.75,4.6838384 11.1005051,2.33333333 14,2.33333333 Z M14,4.08333333 C12.0670034,4.08333333 10.5,5.65033671 10.5,7.58333333 L10.4996667,8.16633333 L8.74966667,8.16633333 L8.75,12.8333333 L10.5,12.8333333 L10.4996667,8.16633333 L17.4996667,8.16633333 L17.5,7.58333333 C17.5,5.65033671 15.9329966,4.08333333 14,4.08333333 Z" id="Combined-Shape"></path>
                </g>
            </g>
        </g>
    </g>
</svg>