<?xml version="1.0" encoding="UTF-8"?>
<svg width="24px" height="24px" viewBox="0 0 24 24" version="1.1" xmlns="http://www.w3.org/2000/svg" xmlns:xlink="http://www.w3.org/1999/xlink">
    <title>icons_outlined_kidwatch</title>
    <g id="icons_outlined_kidwatch" stroke="none" stroke-width="1" fill="none" fill-rule="evenodd">
        <g id="编组-2">
            <rect id="矩形" x="0" y="0" width="24" height="24"></rect>
            <g id="编组" transform="translate(4.307692, 0.384615)" fill="#000000" fill-rule="nonzero">
                <path d="M11.5233378,4.15 L4.07666224,4.15 C3.06354111,4.15 2.59553959,4.24037526 2.10988544,4.50010595 C1.67520721,4.73257441 1.33257441,5.07520721 1.10010595,5.50988544 C0.860354546,5.95818158 0.76490599,6.39143643 0.751640244,7.25228558 L0.75,15.7233378 C0.75,16.7364589 0.840375262,17.2044604 1.10010595,17.6901146 C1.33257441,18.1247928 1.67520721,18.4674256 2.10988544,18.6998941 C2.55818158,18.9396455 2.99143643,19.035094 3.85228558,19.0483598 L11.5233378,19.05 C12.5364589,19.05 13.0044604,18.9596247 13.4901146,18.6998941 C13.9247928,18.4674256 14.2674256,18.1247928 14.4998941,17.6901146 C14.7596247,17.2044604 14.85,16.7364589 14.85,15.7233378 L14.85,7.47666224 C14.85,6.46354111 14.7596247,5.99553959 14.4998941,5.50988544 C14.2674256,5.07520721 13.9247928,4.73257441 13.4901146,4.50010595 C13.0044604,4.24037526 12.5364589,4.15 11.5233378,4.15 Z M3.86974975,4.6513666 L11.5233378,4.65 L11.9192526,4.65558486 C12.5812982,4.676497 12.9130479,4.75850082 13.2543151,4.94101254 C13.6018591,5.12688111 13.8731189,5.39814088 14.0589875,5.74568487 C14.2746831,6.14900072 14.35,6.53902347 14.35,7.47666224 L14.35,15.7233378 L14.3444151,16.1192526 C14.323503,16.7812982 14.2414992,17.1130479 14.0589875,17.4543151 C13.8731189,17.8018591 13.6018591,18.0731189 13.2543151,18.2589875 C12.8509993,18.4746831 12.4609765,18.55 11.5233378,18.55 L4.07666224,18.55 C3.13902347,18.55 2.74900072,18.4746831 2.34568487,18.2589875 C1.99814088,18.0731189 1.72688111,17.8018591 1.54101254,17.4543151 C1.32531687,17.0509993 1.25,16.6609765 1.25,15.7233378 L1.25,7.47666224 C1.25,6.53902347 1.32531687,6.14900072 1.54101254,5.74568487 C1.72688111,5.39814088 1.99814088,5.12688111 2.34568487,4.94101254 C2.71797643,4.74190884 3.07894131,4.66241785 3.86974975,4.6513666 Z" id="矩形"></path>
                <path d="M14.8153846,7.67307692 C14.5668565,7.67307692 14.3653846,7.87454879 14.3653846,8.12307692 L14.3653846,10.1230769 C14.3653846,10.3716051 14.5668565,10.5730769 14.8153846,10.5730769 C15.0639128,10.5730769 15.2653846,10.3716051 15.2653846,10.1230769 L15.2653846,8.12307692 C15.2653846,7.87454879 15.0639128,7.67307692 14.8153846,7.67307692 Z" id="矩形"></path>
                <path d="M10.2671229,0.75 C10.6402661,0.75 10.8225937,0.780297898 11.0173152,0.869903393 C11.1977054,0.952913997 11.346914,1.07809714 11.4600106,1.24131638 C11.5646521,1.39233331 11.6248013,1.54195541 11.6812276,1.81628818 L11.7093193,1.96443094 L12.0902211,4.42326709 L11.5961146,4.49980983 L11.2160701,2.04614864 L11.1727548,1.82977045 C11.1376801,1.68138685 11.1026677,1.60349717 11.0490309,1.52608936 C10.9868848,1.43640111 10.9074213,1.36973281 10.8082977,1.32411886 C10.7056363,1.27687686 10.6069522,1.25616647 10.3874941,1.25121334 L5.61120649,1.25 C5.3041614,1.25 5.18980341,1.26900319 5.07003168,1.32411886 C4.97090809,1.36973281 4.89144467,1.43640111 4.82929857,1.52608936 C4.76493436,1.61897873 4.72738928,1.71256199 4.68437291,1.92781999 L4.31653173,4.01484099 L4.25,4.46153846 L3.75,4.46153846 L3.78769102,4.16220054 L3.84571214,3.79613644 L4.16986751,1.95925597 C4.23471433,1.59179069 4.29623706,1.4175028 4.41831882,1.24131638 C4.53141546,1.07809714 4.68062402,0.952913997 4.86101419,0.869903393 C5.02791834,0.793098683 5.18571676,0.759866901 5.46237812,0.75193955 L5.61120649,0.75 L10.2671229,0.75 Z" id="路径"></path>
                <path d="M10.2671229,18.5192308 C10.6402661,18.5192308 10.8225937,18.5495287 11.0173152,18.6391342 C11.1977054,18.7221448 11.346914,18.8473279 11.4600106,19.0105472 C11.5646521,19.1615641 11.6248013,19.3111862 11.6812276,19.5855189 L11.7093193,19.7336617 L12.0902211,22.1924979 L11.5961146,22.2690406 L11.2160701,19.8153794 L11.1727548,19.5990012 C11.1376801,19.4506176 11.1026677,19.3727279 11.0490309,19.2953201 C10.9868848,19.2056319 10.9074213,19.1389636 10.8082977,19.0933496 C10.7056363,19.0461076 10.6069522,19.0253972 10.3874941,19.0204441 L5.61120649,19.0192308 C5.3041614,19.0192308 5.18980341,19.038234 5.07003168,19.0933496 C4.97090809,19.1389636 4.89144467,19.2056319 4.82929857,19.2953201 C4.76493436,19.3882095 4.72738928,19.4817928 4.68437291,19.6970508 L4.31653173,21.7840718 L4.25,22.2307692 L3.75,22.2307692 L3.78769102,21.9314313 L3.84571214,21.5653672 L4.16986751,19.7284867 C4.23471433,19.3610215 4.29623706,19.1867336 4.41831882,19.0105472 C4.53141546,18.8473279 4.68062402,18.7221448 4.86101419,18.6391342 C5.02791834,18.5623295 5.18571676,18.5290977 5.46237812,18.5211703 L5.61120649,18.5192308 L10.2671229,18.5192308 Z" id="路径" transform="translate(7.920111, 20.394136) scale(1, -1) translate(-7.920111, -20.394136) "></path>
                <path d="M11.6166684,5.95 L3.98333163,5.95 C3.57044432,5.95 3.36645027,5.98939307 3.15432535,6.10283872 C2.96033088,6.20658809 2.80658809,6.36033088 2.70283872,6.55432535 C2.58939307,6.76645027 2.55,6.97044432 2.55,7.38333163 L2.55,15.8166684 C2.55,16.2295557 2.58939307,16.4335497 2.70283872,16.6456747 C2.80658809,16.8396691 2.96033088,16.9934119 3.15432535,17.0971613 C3.36645027,17.2106069 3.57044432,17.25 3.98333163,17.25 L11.6166684,17.25 C12.0295557,17.25 12.2335497,17.2106069 12.4456747,17.0971613 C12.6396691,16.9934119 12.7934119,16.8396691 12.8971613,16.6456747 C13.0106069,16.4335497 13.05,16.2295557 13.05,15.8166684 L13.05,7.38333163 C13.05,6.97044432 13.0106069,6.76645027 12.8971613,6.55432535 C12.7934119,6.36033088 12.6396691,6.20658809 12.4456747,6.10283872 C12.2335497,5.98939307 12.0295557,5.95 11.6166684,5.95 Z M3.85104444,6.45155035 L11.6166684,6.45 C11.9540733,6.45 12.0800886,6.47433467 12.2098752,6.54374532 C12.3167355,6.60089479 12.3991052,6.68326454 12.4562547,6.79012477 C12.5256653,6.91991139 12.55,7.04592667 12.55,7.38333163 L12.55,15.8166684 C12.55,16.1540733 12.5256653,16.2800886 12.4562547,16.4098752 C12.3991052,16.5167355 12.3167355,16.5991052 12.2098752,16.6562547 C12.0800886,16.7256653 11.9540733,16.75 11.6166684,16.75 L3.98333163,16.75 C3.64592667,16.75 3.51991139,16.7256653 3.39012477,16.6562547 C3.28326454,16.5991052 3.20089479,16.5167355 3.14374532,16.4098752 C3.08425048,16.2986296 3.05787268,16.1901547 3.05155035,15.9489556 L3.05,7.38333163 C3.05,7.04592667 3.07433467,6.91991139 3.14374532,6.79012477 C3.20089479,6.68326454 3.28326454,6.60089479 3.39012477,6.54374532 C3.50137045,6.48425048 3.60984534,6.45787268 3.85104444,6.45155035 Z" id="矩形"></path>
            </g>
        </g>
    </g>
</svg>