<?xml version="1.0" encoding="UTF-8"?>
<svg width="24px" height="24px" viewBox="0 0 24 24" version="1.1" xmlns="http://www.w3.org/2000/svg" xmlns:xlink="http://www.w3.org/1999/xlink">
    <title>icon_transaction_protection_gray</title>
    <g id="icon_transaction_protection_gray" stroke="none" stroke-width="1" fill="none" fill-rule="evenodd">
        <g id="编组-2备份">
            <g id="编组" fill="#FFFFFF" fill-opacity="0">
                <rect id="矩形" x="0" y="0" width="24" height="24"></rect>
            </g>
            <path d="M12.025253,1 C12.318853,1.004 12.641253,1.05088 12.938693,1.131424 L13.156253,1.198 C15.7953155,2.1101875 18.2462921,3.48555859 20.3962982,5.25984326 L20.822253,5.62 L20.823253,5.62 L20.992749,5.777088 C21.211053,5.99344 21.398253,6.2368 21.550253,6.5 C21.694253,6.7568 21.815853,7.05904 21.894573,7.357056 L21.945253,7.579 C22.4749405,10.32025 22.5089249,13.1309336 22.0480301,15.8800388 L21.949253,16.429 L21.898061,16.655136 C21.820013,16.95216 21.703053,17.236 21.550253,17.5 C21.400653,17.7528 21.199213,18.0088 20.980749,18.226016 L20.814253,18.381 L20.812753,18.3815 L20.3866622,18.7423557 C18.2384249,20.5176914 15.788503,21.8949375 13.152253,22.809 L13.151378,22.809125 L13.151253,22.81 C12.786253,22.936 12.405253,22.999 12.025253,23 C11.657253,22.995 11.246253,22.923 10.893253,22.802 C10.892253,22.802 10.892253,22.801 10.891253,22.801 C8.255003,21.88975 5.80332331,20.5144375 3.65321833,18.7409805 L3.227253,18.381 L3.227253,18.38 C2.934253,18.127 2.689253,17.83 2.499253,17.5 C2.355253,17.2432 2.234293,16.94096 2.155317,16.642944 L2.104253,16.421 C1.575503,13.67975 1.54069831,10.8690664 2.00148688,8.12078516 L2.100253,7.572 C2.174253,7.191 2.308253,6.83 2.499253,6.5 C2.648853,6.2472 2.850933,5.9912 3.069653,5.774496 L3.236253,5.62 L3.236753,5.6185 C5.34565925,3.78990625 7.76262214,2.35462305 10.3726972,1.37980432 L10.897253,1.191 L10.898253,1.191 C11.263253,1.064 11.644253,1 12.025253,1 Z M7.787153,6 C7.244153,8.002 5.901153,10.515 4.965153,11.792 L5.793153,13.001 C6.145153,12.558 6.484153,12.114 6.783153,11.657 L6.783153,18 L8.099153,18 L8.099153,9.238 C8.507153,8.338 8.859153,7.371 9.198153,6.336 L7.787153,6 Z M16.756653,6.4974 L9.632653,6.4974 L9.632653,10.9854 L12.536653,10.9854 L12.536653,12.1544 L8.900653,12.1544 L8.900653,13.3774 L11.939653,13.3774 L11.7845093,13.582746 C10.9983053,14.5927806 10.0450802,15.3583516 8.48655794,16.1480574 L8.166653,16.3064 L8.953653,17.5164 L9.27926574,17.3086252 C10.6472088,16.4208768 11.5741574,15.6197241 12.3465964,14.6142056 L12.536653,14.3584 L12.536653,17.9594 L13.853653,17.9594 L13.853653,14.3854 L14.133957,14.728812 C14.901349,15.635228 15.825157,16.464332 16.835749,17.155708 L17.218653,17.4084 L17.964653,16.1454 L17.6222091,15.9767794 C16.2880896,15.3001047 15.2633424,14.5396438 14.4702622,13.6294089 L14.259653,13.3774 L17.516653,13.3774 L17.516653,12.1544 L13.853653,12.1544 L13.853653,10.9854 L16.756653,10.9854 L16.756653,6.4974 Z M15.358753,7.787 L15.358753,9.695 L11.029753,9.695 L11.029753,7.787 L15.358753,7.787 Z" id="形状结合" fill="#000000" opacity="0.2"></path>
        </g>
    </g>
</svg>