<?xml version="1.0" encoding="UTF-8"?>
<svg width="24px" height="24px" viewBox="0 0 24 24" version="1.1" xmlns="http://www.w3.org/2000/svg" xmlns:xlink="http://www.w3.org/1999/xlink">
    <!-- Generator: Sketch 63.1 (92452) - https://sketch.com -->
    <title>kids_disable</title>
    <desc>Created with Sketch.</desc>
    <defs>
        <rect id="path-1" x="0" y="0" width="24" height="24"></rect>
    </defs>
    <g id="kids_disable" stroke="none" stroke-width="1" fill="none" fill-rule="evenodd">
        <g id="编组">
            <g id="矩形"></g>
            <path d="M18.2449246,1.64 L17.855,3.27 L17.895929,3.37105105 C18.244493,4.34248162 18.1077781,6.3847634 17.6782058,8.40711316 C18.0018393,8.60195961 18.2181818,8.95705218 18.2181818,9.3625 C18.2181818,9.97648846 17.7220555,10.475 17.1090909,10.475 C17.0013249,10.475 16.8971702,10.4595912 16.7986882,10.4308552 L16.8,10.6695652 C16.8,11.599141 16.3377174,12.4509083 15.6010554,12.8774634 L15.4501202,12.957002 L14.4733547,13.423102 C14.4804259,13.459297 14.4825704,13.4970846 14.4791172,13.535662 C14.3936516,14.4904627 14.4385674,15.22025 14.5979725,15.7218842 C14.8397734,15.4762092 15.1912223,15.3728617 15.529241,15.4500338 L15.6422973,15.4828702 L17.172511,16.0250898 C17.7303009,16.2227502 18.1394144,16.7128014 18.2605258,17.31039 L18.284723,17.4619205 L18.6815492,21.4604973 C18.703366,21.6803313 18.5428413,21.8762279 18.3230073,21.8980446 C18.1306525,21.9171343 17.9566249,21.7966188 17.901508,21.61892 L17.8854599,21.5395027 L17.4894138,17.5481229 C17.4517415,17.227653 17.2660363,16.9566757 17.0061141,16.822767 L16.9053085,16.7791473 L15.3750874,16.2369252 C15.2836947,16.2045369 15.1856649,16.2391918 15.1353331,16.3234924 C15.0760139,16.4228386 15.0126327,16.5187147 14.9454763,16.610914 C14.9236355,16.6839997 14.8807314,16.7531118 14.816958,16.8065628 C14.7986372,16.8219182 14.7793447,16.8353519 14.7593256,16.8468854 C14.1007989,17.6112943 13.1613057,18.0675542 12.1454349,18.0675542 C10.9155544,18.0675542 9.79759914,17.3987648 9.15556954,16.3234815 C9.11530928,16.2560498 9.04451813,16.2203843 8.97101161,16.2254008 L8.91580721,16.2369303 L7.38559754,16.7791484 C7.10825911,16.8774187 6.89594237,17.1236915 6.82291377,17.4258896 L6.80220223,17.5416556 L6.39797155,21.5402324 C6.37575181,21.760026 6.17956123,21.9201913 5.95976761,21.8979715 C5.76744819,21.8785293 5.62078173,21.7258906 5.60200559,21.5407901 L5.60200559,21.4597676 L6.00696612,17.4547234 C6.07839193,16.8471196 6.45007427,16.3255425 6.98213083,16.0804815 L7.11840514,16.0250873 L8.64859737,15.4828753 C9.0377425,15.344968 9.46400692,15.4590314 9.7313698,15.7612765 C9.90064734,15.2609687 9.95057713,14.517215 9.86271683,13.535662 C9.85996712,13.504943 9.86076678,13.4747247 9.86477708,13.4454126 L8.84076737,12.9570352 C8.06836291,12.5886233 7.55781793,11.771938 7.49701702,10.8543296 L7.49090909,10.6695652 L7.49122929,10.431144 C7.39303979,10.4596945 7.2892226,10.475 7.18181818,10.475 C6.56885359,10.475 6.07272727,9.97648846 6.07272727,9.3625 C6.07272727,8.91585349 6.33526984,8.53031563 6.71434574,8.35333793 L6.61475083,7.96674171 C6.29825833,6.70912271 6.14224264,5.93536326 6.14224264,5.60344828 C6.14224264,4.6156669 6.49808146,3.94494028 7.09590366,3.57278712 C7.35134875,3.41376878 7.59816935,3.33255372 7.81765219,3.29826338 L7.864,3.292 L7.94318475,3.18869373 C8.4044929,2.62628743 9.22717322,2.24372011 10.3208791,1.98900869 L10.5780427,1.9324751 C11.1969352,1.80412915 11.8566219,1.72204563 12.5157987,1.67647893 L12.9730659,1.6506462 L13.39948,1.64 L18.2449246,1.64 Z M13.6558717,13.8131092 L13.4864034,13.893488 C13.062538,14.0956038 12.6065267,14.2 12.1454166,14.2 C11.7610903,14.2 11.3803296,14.1275077 11.0188339,13.9863693 L10.8043739,13.8934795 L10.687482,13.8383366 C10.7563357,15.0027814 10.628939,15.881303 10.2827391,16.4783572 C10.7787451,16.9777693 11.4395393,17.2675542 12.1454349,17.2675542 C12.866683,17.2675542 13.5408311,16.9650533 14.0419986,16.4459355 C13.7059362,15.8452269 13.5849624,14.9690798 13.6558717,13.8131092 Z M14.8805195,6.2 L9.41038961,6.2 C8.84287908,6.2 8.35553237,6.71719884 8.29683087,7.40038426 L8.29090909,7.53913043 L8.29090909,10.6695652 C8.29090909,11.309692 8.59698649,11.8844294 9.0648884,12.169777 L9.18515175,12.2349553 L11.1487552,13.1713981 C11.4656126,13.3225254 11.8040853,13.4 12.1454166,13.4 C12.4184182,13.4 12.6896297,13.3504105 12.9494648,13.2531976 L13.1420583,13.1713893 L15.1057751,12.2349033 C15.599634,11.9994119 15.9436965,11.4558158 15.993707,10.8281134 L16,10.6695652 L16,7.53913043 C16,6.78845735 15.4858641,6.2 14.8805195,6.2 Z M7.18181818,9.05 C7.01154259,9.05 6.87272727,9.18948269 6.87272727,9.3625 C6.87272727,9.53551731 7.01154259,9.675 7.18181818,9.675 C7.35209378,9.675 7.49090909,9.53551731 7.49090909,9.3625 C7.49090909,9.18948269 7.35209378,9.05 7.18181818,9.05 Z M17.1090909,9.05 C16.9388153,9.05 16.8,9.18948269 16.8,9.3625 L16.8000056,9.358 C16.8018916,9.51308277 16.9032494,9.63476255 17.0383548,9.66676913 L17.1090909,9.675 C17.2793665,9.675 17.4181818,9.53551731 17.4181818,9.3625 C17.4181818,9.18948269 17.2793665,9.05 17.1090909,9.05 Z" id="形状结合" fill-opacity="0.3" fill="#000000" mask="url(#mask-2)"></path>
        </g>
    </g>
</svg>