<?xml version="1.0" encoding="UTF-8"?>
<svg width="16px" height="16px" viewBox="0 0 16 16" version="1.1" xmlns="http://www.w3.org/2000/svg" xmlns:xlink="http://www.w3.org/1999/xlink">
    <!-- Generator: Sketch 58 (84663) - https://sketch.com -->
    <title>icons_outlined_Mic</title>
    <desc>Created with Sketch.</desc>
    <g id="icons_outlined_Mic" stroke="none" stroke-width="1" fill="none" fill-rule="evenodd" fill-opacity="0.9">
        <g id="Group备份-2" transform="translate(2.000000, 0.000000)" fill="#000000" stroke="#000000" stroke-width="0.1">
            <path d="M3.525,3.375 L3.525,7.875 C3.525,9.24190476 4.63309524,10.35 6,10.35 C7.36690476,10.35 8.475,9.24190476 8.475,7.875 L8.475,3.375 C8.475,2.00809524 7.36690476,0.9 6,0.9 C4.63309524,0.9 3.525,2.00809524 3.525,3.375 Z M1.275,6.75 L1.275,7.875 C1.275,10.4845454 3.39045456,12.6 6,12.6 C8.60954544,12.6 10.725,10.4845454 10.725,7.875 L10.725,6.75 L11.625,6.75 L11.625,7.875 C11.625,10.8302439 9.3460231,13.2532043 6.44966139,13.4822889 L6.44999975,15.75 L5.54999971,15.75 L5.54933179,13.4822092 C2.65344878,13.2526427 0.375,10.8299015 0.375,7.875 L0.375,6.75 L1.275,6.75 Z M6,0 C7.86396103,0 9.375,1.51103897 9.375,3.375 L9.375,7.875 C9.375,9.73896103 7.86396103,11.25 6,11.25 C4.13603897,11.25 2.625,9.73896103 2.625,7.875 L2.625,3.375 C2.625,1.51103897 4.13603897,0 6,0 Z" id="图标颜色"></path>
        </g>
    </g>
</svg>