<?xml version="1.0" encoding="UTF-8"?>
<svg width="24px" height="24px" viewBox="0 0 24 24" version="1.1" xmlns="http://www.w3.org/2000/svg" xmlns:xlink="http://www.w3.org/1999/xlink">
    <title>icon_transaction_protection_white</title>
    <g id="icon_transaction_protection_white" stroke="none" stroke-width="1" fill="none" fill-rule="evenodd">
        <rect id="矩形" fill-opacity="0" fill="#FFFFFF" x="0" y="0" width="24" height="24"></rect>
        <g id="编组" transform="translate(1.680000, 1.000000)" fill="#FFFFFF">
            <path d="M20.265253,6.581 L20.265253,6.579 L20.265253,6.579 C20.195253,6.213 20.050253,5.821 19.870253,5.5 C19.680253,5.171 19.435253,4.873 19.143253,4.62 L19.143253,4.62 L19.142253,4.62 C16.892253,2.671 14.291253,1.171 11.478253,0.199 C11.478253,0.199 11.477253,0.198 11.476253,0.198 C11.124253,0.077 10.712253,0.005 10.345253,0 C9.964253,0 9.583253,0.064 9.219253,0.19 C9.219253,0.19 9.218253,0.19 9.218253,0.191 L9.217253,0.191 C6.406253,1.165 3.806253,2.668 1.557253,4.618 C1.557253,4.618 1.556253,4.619 1.556253,4.619 L1.556253,4.62 C1.275253,4.863 1.006253,5.184 0.819252997,5.5 C0.628252997,5.83 0.494252997,6.191 0.420252997,6.57 L0.420252997,6.571 L0.420252997,6.572 C-0.141747003,9.494 -0.139747003,12.497 0.424252997,15.419 L0.424252997,15.421 L0.424252997,15.421 C0.495252997,15.787 0.639252997,16.179 0.819252997,16.5 C1.009253,16.83 1.254253,17.127 1.546253,17.38 L1.547253,17.38 L1.547253,17.381 C3.797253,19.329 6.399253,20.829 9.211253,21.801 C9.212253,21.801 9.212253,21.802 9.213253,21.802 C9.566253,21.923 9.977253,21.995 10.345253,22 C10.725253,21.999 11.106253,21.936 11.470253,21.81 L11.471253,21.81 C11.471253,21.809 11.471253,21.809 11.472253,21.809 C14.284253,20.834 16.884253,19.332 19.132253,17.382 C19.132253,17.382 19.133253,17.381 19.133253,17.381 L19.134253,17.381 C19.415253,17.137 19.683253,16.816 19.870253,16.5 C20.061253,16.17 20.196253,15.809 20.269253,15.43 L20.269253,15.429 L20.269253,15.429 C20.831253,12.506 20.830253,9.503 20.265253,6.581" id="Fill-1备份" opacity="0.2"></path>
            <path d="M5.103153,17 L6.419153,17 L6.419153,8.238 C6.827153,7.338 7.179153,6.371 7.518153,5.336 L6.107153,5 C5.564153,7.002 4.221153,9.515 3.285153,10.792 L4.113153,12.001 C4.465153,11.558 4.804153,11.114 5.103153,10.657 L5.103153,17 Z" id="Fill-3备份"></path>
            <path d="M15.076653,5.4974 L15.076653,9.9854 L12.173653,9.9854 L12.173653,11.1544 L15.836653,11.1544 L15.836653,12.3774 L12.579653,12.3774 C13.462653,13.4794 14.655653,14.3664 16.284653,15.1454 L16.284653,15.1454 L15.538653,16.4084 C14.249653,15.5884 13.082653,14.5414 12.173653,13.3854 L12.173653,13.3854 L12.173653,16.9594 L10.856653,16.9594 L10.856653,13.3584 C9.987653,14.5674 8.942653,15.4684 7.273653,16.5164 L7.273653,16.5164 L6.486653,15.3064 C8.346653,14.4064 9.391653,13.5604 10.259653,12.3774 L10.259653,12.3774 L7.220653,12.3774 L7.220653,11.1544 L10.856653,11.1544 L10.856653,9.9854 L7.952653,9.9854 L7.952653,5.4974 L15.076653,5.4974 Z M13.678753,6.787 L9.349753,6.787 L9.349753,8.695 L13.678753,8.695 L13.678753,6.787 Z" id="形状结合备份"></path>
        </g>
    </g>
</svg>